<svg xmlns="http://www.w3.org/2000/svg" xmlns:xlink="http://www.w3.org/1999/xlink" version="1.1" x="0px" y="0px" viewBox="-55 147 500 625" style="enable-background:new -55 147 500 500;" xml:space="preserve"><path d="M386.6,637.1l-13.7-24.2l1-0.6c3-1.7,8.6-4.9,2.1-41.2c-2.9-16-8.1-37-14.3-47.9L306,424.8h32.6c3.6,0,6.6-3,6.6-6.6  s-3-6.6-6.6-6.6h-40.1l-63.9-112.9c2.8-7.3,4.3-15.2,4.3-23v-38.9c0-9-7.3-16.3-16.3-16.3h-7.7v-53.4c0.2-11.1-8.8-20.1-19.9-20.1  s-20.1,9-20.1,20.1v53.4h-7.7c-9,0-16.3,7.3-16.3,16.3v38.9c0,7.8,1.5,15.7,4.3,23L91.3,411.6H51.2c-3.6,0-6.6,3-6.6,6.6  s3,6.6,6.6,6.6h32.6l-55.7,98.4c-6.2,10.9-11.4,31.9-14.3,47.9c-6.5,36.3-0.9,39.5,2.1,41.2l1,0.6L3.2,637.1c-1.8,3.2-0.7,7.2,2.5,9  c1,0.6,2.2,0.9,3.3,0.9c2.3,0,4.5-1.2,5.7-3.3l17-29.9l0,0l0,0L138.5,425h34.2v23.8c0,7.3,5.9,13.2,13.2,13.2h17.8  c7.3,0,13.2-5.9,13.2-13.2V425h34.2l106.8,188.8l0,0l0,0l17,29.9c1.2,2.1,3.4,3.3,5.7,3.3c1.1,0,2.2-0.3,3.3-0.9  C387.3,644.3,388.4,640.3,386.6,637.1z M365.8,600.5L212.6,329.6c5.2-0.6,9.9-3.9,12.2-8.8l3.3-7.1l122.2,216  C359.3,545.8,366.5,588.4,365.8,600.5z M188.1,167.1c0-3.8,3.1-6.9,6.9-6.9s6.9,3.1,6.9,6.9v53.4h-13.8L188.1,167.1L188.1,167.1z   M164.2,236.8c0-1.7,1.4-3.1,3.1-3.1h55.5c1.7,0,3.1,1.4,3.1,3.1v38.9c0,7.4-1.7,14.9-4.8,21.7l-8.2,17.8c-0.4,0.8-1.1,1.3-2,1.3  h-31.6c-0.8,0-1.6-0.5-2-1.3l-8.2-17.8c-3.1-6.8-4.8-14.3-4.8-21.7L164.2,236.8L164.2,236.8z M39.7,529.8l122.2-216l3.3,7.1  c2.3,4.9,6.9,8.2,12.2,8.8L24.2,600.5C23.5,588.4,30.7,545.8,39.7,529.8z M186.1,448.7V388h17.8v60.8h-17.8V448.7z M217.1,411.7  v-23.8c0-7.3-5.9-13.2-13.2-13.2h-17.8c-7.3,0-13.2,5.9-13.2,13.2v23.8h-26.8l46.3-81.9h5l46.3,81.9H217.1z"/><text x="-55" y="662" fill="#000000" font-size="5px" font-weight="bold" font-family="'Helvetica Neue', Helvetica, Arial-Unicode, Arial, Sans-serif">Created by IronSV</text><text x="-55" y="667" fill="#000000" font-size="5px" font-weight="bold" font-family="'Helvetica Neue', Helvetica, Arial-Unicode, Arial, Sans-serif">from the Noun Project</text></svg>