<svg xmlns="http://www.w3.org/2000/svg" xmlns:xlink="http://www.w3.org/1999/xlink" version="1.1" x="0px" y="0px" viewBox="0 0 2000 2500" style="enable-background:new 0 0 2000 2000;" xml:space="preserve"><g><g><path d="M1375.2,1335c0-18.6-15.1-33.7-33.7-33.7H1307h-20.8c-18.6,0-33.7,15.1-33.7,33.7v137.7v41.9h89    c18.6,0,33.7-15.1,33.7-33.7V1335z"/><path d="M338.1,1277.6c0.4,0,0.7,0.1,1.1,0.1c0.7,0.1,1.3,0.2,2,0.4c0.3,0.1,0.5,0.1,0.8,0.1    c1.9,0.4,3.7,0.9,5.5,1.4c0.2,0.1,0.4,0.1,0.6,0.2c0.7,0.2,1.4,0.4,2,0.7c0.3,0.1,0.6,0.2,0.9,0.3c0.6,0.2,1.2,0.4,1.7,0.7    c0.3,0.1,0.6,0.3,0.9,0.4c0.5,0.2,1.1,0.5,1.6,0.7c0.3,0.2,0.6,0.3,1,0.5c0.5,0.3,1,0.5,1.5,0.8c0.3,0.2,0.6,0.4,1,0.5    c0.5,0.3,1,0.5,1.4,0.8c0.3,0.2,0.6,0.4,1,0.6c0.5,0.3,0.9,0.6,1.4,0.9c0.3,0.2,0.6,0.4,1,0.7c0.4,0.3,0.9,0.6,1.3,0.9    c0.3,0.2,0.6,0.5,0.9,0.7c0.4,0.3,0.8,0.6,1.2,1c0.3,0.2,0.6,0.5,0.9,0.8c0.4,0.3,0.8,0.7,1.2,1c0.3,0.3,0.6,0.5,0.9,0.8    c0.4,0.3,0.7,0.7,1.1,1.1c0.3,0.3,0.6,0.6,0.8,0.9c0.4,0.4,0.7,0.7,1.1,1.1c0.3,0.3,0.5,0.6,0.8,0.9c0.3,0.4,0.7,0.8,1,1.1    c0.3,0.3,0.5,0.6,0.8,0.9c0.3,0.4,0.6,0.8,0.9,1.2c0.2,0.3,0.5,0.7,0.7,1c0.3,0.4,0.6,0.8,0.9,1.2c0.2,0.3,0.5,0.7,0.7,1    c0.3,0.4,0.5,0.8,0.8,1.3c0.2,0.4,0.4,0.7,0.6,1.1c0.3,0.4,0.5,0.9,0.8,1.3c0.2,0.4,0.4,0.7,0.6,1.1c0.2,0.4,0.5,0.9,0.7,1.3    c0.2,0.4,0.4,0.7,0.6,1.1c0.2,0.5,0.4,0.9,0.6,1.4c0.2,0.4,0.3,0.8,0.5,1.1c0.2,0.5,0.4,0.9,0.6,1.4c0.2,0.4,0.3,0.8,0.4,1.2    c0.2,0.5,0.3,1,0.5,1.5c0.1,0.4,0.3,0.8,0.4,1.2c0.2,0.5,0.3,1,0.4,1.5c0.1,0.4,0.2,0.8,0.3,1.2c0.1,0.5,0.2,1,0.4,1.6    c0.1,0.4,0.2,0.8,0.3,1.2c0.1,0.5,0.2,1.1,0.3,1.6c0.1,0.4,0.1,0.8,0.2,1.2c0.1,0.6,0.1,1.1,0.2,1.7c0,0.4,0.1,0.8,0.1,1.1    c0.1,0.6,0.1,1.3,0.1,1.9c0,0.3,0.1,0.6,0.1,1c0,1,0.1,1.9,0.1,2.9v50.8h244.4v-236.3H367.4c-18.6,0-33.7,15.1-33.7,33.7v94    c0.5,0,1,0.1,1.4,0.1c0.4,0,0.8,0.1,1.2,0.1C337,1277.4,337.5,1277.5,338.1,1277.6z"/><path d="M1249.1,1149.5H983.8v236.3h244.4V1335c0-1,0-2,0.1-2.9c0-0.3,0-0.6,0.1-1c0-0.6,0.1-1.3,0.1-1.9    c0-0.4,0.1-0.8,0.1-1.1c0.1-0.6,0.1-1.1,0.2-1.7c0.1-0.4,0.1-0.8,0.2-1.2c0.1-0.5,0.2-1.1,0.3-1.6c0.1-0.4,0.2-0.8,0.3-1.2    c0.1-0.5,0.2-1,0.4-1.6c0.1-0.4,0.2-0.8,0.3-1.2c0.1-0.5,0.3-1,0.4-1.5c0.1-0.4,0.3-0.8,0.4-1.2c0.2-0.5,0.3-1,0.5-1.5    c0.1-0.4,0.3-0.8,0.4-1.2c0.2-0.5,0.4-1,0.6-1.4c0.2-0.4,0.3-0.8,0.5-1.1c0.2-0.5,0.4-0.9,0.6-1.4c0.2-0.4,0.4-0.7,0.6-1.1    c0.2-0.5,0.5-0.9,0.7-1.3c0.2-0.4,0.4-0.7,0.6-1.1c0.2-0.4,0.5-0.9,0.8-1.3c0.2-0.4,0.4-0.7,0.7-1.1c0.3-0.4,0.5-0.8,0.8-1.3    c0.2-0.3,0.5-0.7,0.7-1c0.3-0.4,0.6-0.8,0.9-1.2c0.2-0.3,0.5-0.7,0.7-1c0.3-0.4,0.6-0.8,0.9-1.2c0.3-0.3,0.5-0.6,0.8-0.9    c0.3-0.4,0.7-0.8,1-1.1c0.3-0.3,0.5-0.6,0.8-0.9c0.3-0.4,0.7-0.7,1.1-1.1c0.3-0.3,0.6-0.6,0.8-0.9c0.4-0.4,0.7-0.7,1.1-1.1    c0.3-0.3,0.6-0.5,0.9-0.8c0.4-0.3,0.8-0.7,1.2-1c0.3-0.3,0.6-0.5,0.9-0.8c0.4-0.3,0.8-0.6,1.2-1c0.3-0.2,0.6-0.5,0.9-0.7    c0.4-0.3,0.9-0.6,1.3-0.9c0.3-0.2,0.6-0.4,1-0.7c0.4-0.3,0.9-0.6,1.4-0.9c0.3-0.2,0.6-0.4,1-0.6c0.5-0.3,0.9-0.5,1.4-0.8    c0.3-0.2,0.6-0.4,1-0.5c0.5-0.3,1-0.5,1.5-0.8c0.3-0.2,0.6-0.3,1-0.5c0.5-0.3,1.1-0.5,1.6-0.7c0.3-0.1,0.6-0.3,0.9-0.4    c0.6-0.2,1.2-0.5,1.7-0.7c0.3-0.1,0.6-0.2,0.9-0.3c0.7-0.2,1.4-0.5,2-0.7c0.2-0.1,0.4-0.1,0.6-0.2c1.8-0.6,3.6-1,5.5-1.4    c0.3-0.1,0.5-0.1,0.8-0.1c0.7-0.1,1.3-0.3,2-0.4c0.4-0.1,0.7-0.1,1.1-0.1c0.6-0.1,1.2-0.2,1.7-0.2c0.4,0,0.8-0.1,1.2-0.1    c0.5,0,1-0.1,1.4-0.1v-94C1282.8,1164.6,1267.7,1149.5,1249.1,1149.5z"/><polygon points="1227.7,1472.7 1227.7,1410 982,1410 959.6,1410 656.9,1410 634.5,1410 388.5,1410 388.5,1472.7     388.5,1514.5 1227.7,1514.5   "/><path d="M275,1301.3c-18.6,0-33.7,15.1-33.7,33.7v145.9c0,18.6,15.1,33.7,33.7,33.7h89v-41.9V1335    c0-18.6-15.1-33.7-33.7-33.7h-20.8H275z"/><rect x="658.8" y="1149.5" width="299" height="236.3"/></g><path d="M1400.8,1262.2v143.9v15v92.8h30v-92.8h297.9v92.8h30v-92.8v-15v-143.9H1400.8z M1614.1,1326.7v30h-68.8   v-30H1614.1z"/><polygon points="1629.6,1276.3 1526.6,1276.3 1512.8,1156.3 1643.3,1156.3  "/><rect x="1564.3" y="1050.7" width="20" height="122.1"/><path d="M1633,984.9c-2.4-11.9-6.5-20.7-6.7-21l-3.3-7l-7.6,1.4c-0.4,0.1-9.9,1.8-21,6.8   c-15.3,6.8-26.6,16.6-32.6,28.2c-6,11.6-7.4,26.5-4,42.9c2.4,11.9,6.5,20.7,6.7,21l3.3,7l7.6-1.4c0.4-0.1,9.9-1.8,21-6.8   c15.3-6.8,26.6-16.6,32.6-28.2C1635,1016.3,1636.4,1001.4,1633,984.9z"/><path d="M1682.6,1080.8c-0.3-0.3-6.8-7.5-16.8-14.4c-13.8-9.5-28-14-41.1-13c-13,1-26.4,7.6-38.7,19   c-8.9,8.3-14.2,16.4-14.4,16.7l-4.2,6.4l5.1,5.7c0.3,0.3,6.8,7.5,16.8,14.4c12.6,8.7,25.5,13.2,37.6,13.2c1.2,0,2.4,0,3.5-0.1l0,0   c13-1,26.4-7.6,38.7-19c8.9-8.3,14.2-16.4,14.4-16.7l4.2-6.4L1682.6,1080.8z"/><path d="M1576.7,1065.8c-0.1-0.4-2.7-9.7-8.5-20.4c-8.1-14.7-18.8-25.1-30.9-30.1h0c-12.1-5-27-5.1-43.1-0.4   c-11.6,3.4-20,8.2-20.4,8.4l-6.7,3.8l2,7.4c0.1,0.4,2.7,9.7,8.5,20.4c8.1,14.7,18.8,25.1,30.9,30.1c6.2,2.6,13.2,3.8,20.6,3.8   c7.1,0,14.6-1.1,22.5-3.5c11.6-3.4,20-8.2,20.4-8.4l6.7-3.8L1576.7,1065.8z"/><rect x="1308.2" y="1027.3" width="30" height="249.5"/><polygon points="1444.2,774.6 1202.2,774.6 1183.5,978.9 1462.8,978.9  "/><path d="M1323.2,1030.5c-31,0-56.1-25.1-56.1-56.1h112.2C1379.3,1005.4,1354.2,1030.5,1323.2,1030.5z"/><rect x="256.7" y="1040.8" width="804.1" height="51.6"/><rect x="287" y="861.6" width="60" height="168"/><rect x="362.7" y="861.6" width="60" height="168"/><rect x="438.4" y="861.6" width="60" height="168"/><rect x="514" y="861.6" width="60" height="168"/><rect x="589.7" y="861.6" width="60" height="168"/><rect x="665.4" y="861.6" width="60" height="168"/><rect x="741" y="861.6" width="60" height="168"/><rect x="859.2" y="852.6" transform="matrix(0.7973 -0.6035 0.6035 0.7973 -385.0268 726.4564)" width="60" height="168"/><path d="M983.8,823.5c-93.2,0-169-75.8-169-169c0-93.2,75.8-169,169-169c93.2,0,169,75.8,169,169   C1152.8,747.6,1077,823.5,983.8,823.5z M983.8,515.5c-76.6,0-139,62.4-139,139c0,76.6,62.4,139,139,139c76.6,0,139-62.4,139-139   C1122.8,577.8,1060.5,515.5,983.8,515.5z"/><path d="M983.8,540.5c-63,0-114,51-114,114s51,114,114,114c63,0,114-51,114-114S1046.8,540.5,983.8,540.5z    M973.8,664.5v-84h20v64h74v20H973.8z"/></g><text x="0" y="2015" fill="#000000" font-size="5px" font-weight="bold" font-family="'Helvetica Neue', Helvetica, Arial-Unicode, Arial, Sans-serif">Created by Yeoul Kwon</text><text x="0" y="2020" fill="#000000" font-size="5px" font-weight="bold" font-family="'Helvetica Neue', Helvetica, Arial-Unicode, Arial, Sans-serif">from the Noun Project</text></svg>